<svg width="491" height="299" viewBox="0 0 491 299" fill="none" xmlns="http://www.w3.org/2000/svg">
<mask id="path-1-inside-1_1342_8" fill="white">
<path d="M0 0H491V299H0V0Z"/>
</mask>
<path d="M0 10H491V-10H0V10ZM491 289H0V309H491V289Z" fill="#EDC84B" mask="url(#path-1-inside-1_1342_8)"/>
<path d="M66.6058 142V42.46C74.3524 41.7133 81.8658 41.34 89.1458 41.34C98.9458 41.34 106.786 43.6267 112.666 48.2C118.639 52.7733 121.626 59.68 121.626 68.92C121.626 78.0667 117.566 85.6267 109.446 91.6C101.419 97.48 91.8058 100.42 80.6058 100.42C80.1391 100.42 79.6258 100.42 79.0658 100.42V95.8C79.4391 95.8 79.7658 95.8 80.0458 95.8C89.2858 95.8 97.3124 93.3733 104.126 88.52C110.939 83.6667 114.346 77.3667 114.346 69.62C114.346 61.78 111.966 56.1333 107.206 52.68C102.446 49.1333 96.0524 47.36 88.0258 47.36C83.8258 47.36 78.9258 47.5467 73.3258 47.92V142H66.6058ZM147.953 142V41.9H154.673V142H147.953ZM251.067 41.9V44.98L192.127 136.12H252.187V142H182.327V138.78L241.267 47.78H185.967V41.9H251.067ZM339.387 41.9V44.98L280.447 136.12H340.507V142H270.647V138.78L329.587 47.78H274.287V41.9H339.387ZM373.527 107.28L359.107 142H351.967L394.107 41.2H398.027L440.307 142H432.747L418.327 107.28H373.527ZM395.647 52.4C395.554 52.4933 395.367 53.0533 395.087 54.08C393.781 58.0933 392.521 61.5 391.307 64.3L375.907 101.54H415.947L400.547 64.44C397.281 57.3467 395.647 53.3333 395.647 52.4ZM65.7546 231.316V146.51H72.1652V227.042C72.1652 238.973 69.6722 248.5 64.6862 255.622C62.1933 259.273 59.6558 262.3 57.0738 264.704C54.4917 267.197 51.331 269.779 47.5915 272.45L44.7869 268.31C58.7654 258.071 65.7546 245.739 65.7546 231.316ZM114.972 229.313C106.157 219.786 101.75 208.078 101.75 194.188C101.75 180.299 106.157 168.635 114.972 159.198C123.875 149.671 135.094 144.908 148.627 144.908C162.16 144.908 173.379 149.671 182.282 159.198C191.186 168.635 195.637 180.299 195.637 194.188C195.637 208.078 191.186 219.786 182.282 229.313C173.379 238.839 162.16 243.603 148.627 243.603C135.094 243.603 123.875 238.839 114.972 229.313ZM119.78 163.338C112.39 171.618 108.695 181.901 108.695 194.188C108.695 206.475 112.39 216.803 119.78 225.172C127.259 233.542 136.874 237.726 148.627 237.726C160.469 237.726 170.084 233.542 177.474 225.172C184.953 216.803 188.693 206.475 188.693 194.188C188.693 181.901 184.953 171.618 177.474 163.338C170.084 154.968 160.469 150.784 148.627 150.784C136.785 150.784 127.17 154.968 119.78 163.338ZM225.261 242V146.51H231.671V242H225.261ZM273.009 161.735L273.276 173.087V242H266.866V145.709H269.804L332.707 218.228C336.98 223.303 340.275 227.354 342.59 230.381C342.234 226.107 342.055 221.21 342.055 215.69V146.51H348.466V242.801H345.528L281.423 168.947C276.971 163.872 274.122 160.489 272.875 158.797L273.009 161.735ZM401.353 152.119H369.033V146.51H440.083V152.119H407.763V242H401.353V152.119Z" fill="#EDC84B"/>
</svg>
